<svg width="120" height="120" viewBox="0 0 120 120" fill="none" xmlns="http://www.w3.org/2000/svg">
<path fill-rule="evenodd" clip-rule="evenodd" d="M96 22H11C9.34315 22 8 23.3431 8 25V27H99V25C99 23.3431 97.6569 22 96 22ZM8 41V31H99V41H8ZM8 45V84C8 85.6569 9.34315 87 11 87H96C97.6569 87 99 85.6569 99 84V45H8ZM11 18C7.13401 18 4 21.134 4 25V84C4 87.866 7.13401 91 11 91H11.645C12.2609 93.6108 14.4593 95.6754 17.2777 95.9903L99.8561 105.214C104.778 105.764 109.22 102.234 109.794 97.3141L116.167 42.7513C116.747 37.781 113.162 33.2916 108.186 32.7585L103 32.2028V25C103 21.134 99.866 18 96 18H11ZM103 36.2257V84C103 87.866 99.866 91 96 91H15.9646C16.3685 91.5486 16.9914 91.9334 17.7217 92.015L100.3 101.239C103.035 101.545 105.502 99.5831 105.821 96.8501L112.194 42.2873C112.516 39.526 110.524 37.0319 107.76 36.7357L103 36.2257ZM12 55C12 53.8954 12.8954 53 14 53H50C51.1046 53 52 53.8954 52 55C52 56.1046 51.1046 57 50 57H14C12.8954 57 12 56.1046 12 55ZM14 63C12.8954 63 12 63.8954 12 65C12 66.1046 12.8954 67 14 67H34C35.1046 67 36 66.1046 36 65C36 63.8954 35.1046 63 34 63H14ZM63 64V77H90V64H63ZM62 60C60.3431 60 59 61.3431 59 63V78C59 79.6569 60.3431 81 62 81H91C92.6569 81 94 79.6569 94 78V63C94 61.3431 92.6569 60 91 60H62Z" fill="#1146A6"/>
</svg>
