<svg width="120" height="120" viewBox="0 0 120 120" fill="none" xmlns="http://www.w3.org/2000/svg">
<path fill-rule="evenodd" clip-rule="evenodd" d="M104 60C104 84.3005 84.3005 104 60 104C35.6995 104 16 84.3005 16 60C16 35.6995 35.6995 16 60 16C84.3005 16 104 35.6995 104 60ZM108 60C108 86.5097 86.5097 108 60 108C33.4903 108 12 86.5097 12 60C12 33.4903 33.4903 12 60 12C86.5097 12 108 33.4903 108 60ZM61.5 32.5C61.5 31.3954 60.6046 30.5 59.5 30.5C58.3954 30.5 57.5 31.3954 57.5 32.5V59.7758C57.5 61.4266 58.1801 63.0044 59.3803 64.1379L76.1268 79.954C76.9298 80.7124 78.1956 80.6763 78.954 79.8732C79.7124 79.0702 79.6763 77.8044 78.8732 77.046L62.1268 61.2298C61.7267 60.852 61.5 60.3261 61.5 59.7758V32.5Z" fill="#1146A6"/>
<circle cx="60" cy="60" r="38" stroke="#1146A6" stroke-width="4"/>
</svg>
