<svg width="36" height="36" viewBox="0 0 36 36" fill="none" xmlns="http://www.w3.org/2000/svg">
<rect width="36" height="36" rx="18" fill="white"/>
<path d="M10.9183 19.5729C10.4499 19.0658 9.65903 19.0344 9.15189 19.5028C8.64474 19.9712 8.61334 20.762 9.08174 21.2692L10.9183 19.5729ZM27.118 10.559C27.4268 9.94154 27.1765 9.1907 26.559 8.88197C25.9415 8.57323 25.1907 8.82351 24.882 9.44098L27.118 10.559ZM9.08174 21.2692L14.118 26.722L15.9545 25.0257L10.9183 19.5729L9.08174 21.2692ZM19.4124 25.9703L27.118 10.559L24.882 9.44098L17.1763 24.8523L19.4124 25.9703ZM14.118 26.722C15.6601 28.3916 18.3959 28.0032 19.4124 25.9703L17.1763 24.8523C16.9417 25.3214 16.3104 25.4111 15.9545 25.0257L14.118 26.722Z" fill="#1146A6"/>
</svg>
