<svg width="120" height="120" viewBox="0 0 120 120" fill="none" xmlns="http://www.w3.org/2000/svg">
<path fill-rule="evenodd" clip-rule="evenodd" d="M87 59.5C91.4183 59.5 95 55.9183 95 51.5C95 47.0817 91.4183 43.5 87 43.5C82.5817 43.5 79 47.0817 79 51.5C79 55.9183 82.5817 59.5 87 59.5ZM87 63.5C93.6274 63.5 99 58.1274 99 51.5C99 44.8726 93.6274 39.5 87 39.5C80.3726 39.5 75 44.8726 75 51.5C75 58.1274 80.3726 63.5 87 63.5Z" fill="#1146A6"/>
<path fill-rule="evenodd" clip-rule="evenodd" d="M73.8855 20.2984C74.3518 18.7508 75.8353 17 78.1502 17H94.8626C97.1816 17 98.6831 18.7571 99.0979 20.3837C99.6027 22.3637 101.02 23.9565 102.655 24.5002C104.132 24.9915 106 26.351 106 28.5714V36.2857C106 37.3508 105.093 38.2143 103.975 38.2143C102.856 38.2143 101.949 37.3508 101.949 36.2857V28.5763C101.944 28.5617 101.926 28.5264 101.872 28.4695C101.764 28.3547 101.569 28.2246 101.319 28.1417C98.134 27.0824 95.9219 24.2758 95.1616 21.2937C95.1178 21.122 95.0247 20.9849 94.9389 20.9091C94.8999 20.8746 94.8728 20.8618 94.864 20.8583C94.8628 20.8578 94.8618 20.8574 94.861 20.8571H78.1514C78.1501 20.8575 78.1477 20.8583 78.1442 20.8597C78.1309 20.865 78.0974 20.8813 78.0503 20.9221C77.9478 21.0109 77.8376 21.168 77.7791 21.3621C76.8965 24.2914 74.4021 27.3099 70.5413 28.2684C70.3398 28.3184 70.1852 28.4156 70.1028 28.4996C70.0673 28.5359 70.0542 28.5602 70.0506 28.5677V69.0714C70.0506 70.1366 69.1439 71 68.0253 71C66.9068 71 66 70.1366 66 69.0714V28.5631C66 26.3371 67.8697 24.9455 69.5194 24.536C71.7324 23.9866 73.3167 22.1864 73.8855 20.2984ZM101.951 28.5842C101.951 28.5842 101.95 28.5812 101.949 28.5763C101.951 28.5812 101.951 28.5842 101.951 28.5842Z" fill="#1146A6"/>
<path fill-rule="evenodd" clip-rule="evenodd" d="M61.5001 13C61.5001 10.2386 63.7387 8 66.5001 8H106C108.761 8 111 10.2386 111 13V103C111 105.761 108.761 108 106 108H94.7771C94.923 107.357 95.0001 106.687 95.0001 106V103.876C99.2566 103.161 102.5 99.4595 102.5 95V92.8845C105.631 92.2983 108 89.5508 108 86.25C108 82.5221 104.978 79.5 101.25 79.5H100V78C100 73.0294 95.9706 69 91.0001 69H61.5001V13ZM106 112H92.7084C91.0604 113.841 88.6656 115 86.0001 115H49.7764C47.8743 115 46.0211 114.397 44.4828 113.279L39 109.291V109.5C39 112.261 36.7614 114.5 34 114.5H10C7.23858 114.5 5 112.261 5 109.5V70.5C5 67.7386 7.23858 65.5 10 65.5H34C35.9911 65.5 37.7104 66.6638 38.5146 68.3483L47.5533 58.1799L41.8067 27.6325C40.8989 22.8065 44.027 18.1437 48.8367 17.1534L57.5001 15.3698V13C57.5001 8.02944 61.5295 4 66.5001 4H106C110.971 4 115 8.02944 115 13V103C115 107.971 110.971 112 106 112ZM48.4881 63.149L39 73.8231V104.345L46.8355 110.044C47.6901 110.665 48.7197 111 49.7764 111H86.0001C88.7615 111 91.0001 108.761 91.0001 106V104H71.5001V100H93.5001C96.2615 100 98.5001 97.7614 98.5001 95V93H71.5001V89H101.25C102.769 89 104 87.7688 104 86.25C104 84.7312 102.769 83.5 101.25 83.5H71.5001V79.5H96.0001V78C96.0001 75.2386 93.7615 73 91.0001 73H57.806C53.4771 73 49.7615 69.9182 48.9612 65.6639L48.4881 63.149ZM49.6433 21.0713L57.5001 19.4537V68.9907C55.2278 68.8527 53.3179 67.187 52.8922 64.9244L45.7378 26.8929C45.2334 24.2119 46.9713 21.6214 49.6433 21.0713ZM23 69.5H34C34.5523 69.5 35 69.9477 35 70.5V109.5C35 110.052 34.5523 110.5 34 110.5H10C9.44772 110.5 9 110.052 9 109.5V70.5C9 69.9477 9.44772 69.5 10 69.5H19V97H23V69.5Z" fill="#1146A6"/>
</svg>
