<svg width="120" height="120" viewBox="0 0 120 120" fill="none" xmlns="http://www.w3.org/2000/svg">
<path fill-rule="evenodd" clip-rule="evenodd" d="M20 9.5C17.7909 9.5 16 11.2909 16 13.5V106.5C16 108.709 17.7909 110.5 20 110.5H77.5C79.7091 110.5 81.5 108.709 81.5 106.5V81.4138L103.005 44.1664L107.874 35.732C108.979 33.8189 108.323 31.3725 106.41 30.268L99.482 26.268C97.5689 25.1634 95.1225 25.8189 94.018 27.732L89.1484 36.1664L81.5 49.4138V25V24.1716L80.9142 23.5858L67.4142 10.0858L66.8284 9.5H66H20ZM81.4502 57.5H81.5V57.4138L91.6125 39.8984L98.5407 43.8984L77.2798 80.7233L70.3516 76.7233L81.4502 57.5ZM77.5 56.342V27H68C65.7909 27 64 25.2091 64 23V13.5H20V106.5H77.5V86.4186L70.4163 92.055C69.3193 92.928 68.0285 93.1076 66.888 92.7925C66.6204 92.9253 66.3189 93 66 93H46C44.8954 93 44 92.1046 44 91C44 89.8954 44.8954 89 46 89H63.9225C63.9205 88.7831 63.9358 88.5605 63.9698 88.3331L65.6416 77.1595L65.6977 76.7841L65.8875 76.4554L77.5 56.342ZM74.6716 23L68 16.3284V23H74.6716ZM97.482 29.732L104.41 33.732L100.541 40.4343L93.6125 36.4343L97.482 29.732ZM69.163 80.6559L74.4685 83.719L67.9258 88.925L69.163 80.6559ZM29.7333 50.7333V57.2667H36.2667V50.7333H29.7333ZM28.8 47C27.2536 47 26 48.2536 26 49.8V58.2C26 59.7464 27.2536 61 28.8 61H37.2C38.7464 61 40 59.7464 40 58.2V49.8C40 48.2536 38.7464 47 37.2 47H28.8ZM29.7333 76.2667V69.7333H36.2667V76.2667H29.7333ZM26 68.8C26 67.2536 27.2536 66 28.8 66H37.2C38.7464 66 40 67.2536 40 68.8V77.2C40 78.7464 38.7464 80 37.2 80H28.8C27.2536 80 26 78.7464 26 77.2V68.8ZM29.7333 87.7333V94.2667H36.2667V87.7333H29.7333ZM28.8 84C27.2536 84 26 85.2536 26 86.8V95.2C26 96.7464 27.2536 98 28.8 98H37.2C38.7464 98 40 96.7464 40 95.2V86.8C40 85.2536 38.7464 84 37.2 84H28.8ZM37.9002 34.8C38.5629 33.9164 38.3838 32.6628 37.5002 32C36.6165 31.3373 35.3629 31.5164 34.7002 32.4L32.3605 35.5196C31.7922 36.2773 30.6846 36.3561 30.0149 35.6863C29.4071 35.0785 28.4217 35.0785 27.8139 35.6863L27.5002 36C26.7191 36.7811 26.7191 38.0474 27.5002 38.8285L28.4553 39.7837C30.1766 41.5049 33.0232 41.3026 34.4838 39.3552L37.9002 34.8ZM59 36C59 37.1046 58.1046 38 57 38H46C44.8954 38 44 37.1046 44 36C44 34.8954 44.8954 34 46 34H57C58.1046 34 59 34.8954 59 36ZM46 56H66C67.1046 56 68 55.1046 68 54C68 52.8954 67.1046 52 66 52H46C44.8954 52 44 52.8954 44 54C44 55.1046 44.8954 56 46 56ZM59 73C59 74.1046 58.1046 75 57 75H46C44.8954 75 44 74.1046 44 73C44 71.8954 44.8954 71 46 71H57C58.1046 71 59 71.8954 59 73Z" fill="#1146A6"/>
</svg>
