<svg width="120" height="120" viewBox="0 0 120 120" fill="none" xmlns="http://www.w3.org/2000/svg">
<path fill-rule="evenodd" clip-rule="evenodd" d="M7 16C7 11.0294 11.0294 7 16 7H26H52H63C67.9706 7 72 11.0294 72 16V24.5558C73.3228 25.2586 74.4872 26.3011 75.3504 27.6499L78.0314 31.8388L80.6545 27.49C83.2305 23.2192 88.7883 21.8577 93.0466 24.4542L101.815 29.8005C104.912 31.689 106.475 35.1614 106.066 38.5625C110.534 39.0899 114 42.8902 114 47.5V53.5V90C114 94.9706 109.971 99 105 99H72V104C72 108.971 67.9706 113 63 113H16C11.0294 113 7 108.971 7 104V16ZM52.75 55.5H110V67H100C95.0294 67 91 71.0294 91 76C91 80.9706 95.0294 85 100 85H110V90C110 92.7614 107.761 95 105 95H53C50.2386 95 48 92.7614 48 90V54.0997C49.368 54.9856 50.9989 55.5 52.75 55.5ZM110 81V71H100C97.2386 71 95 73.2386 95 76C95 78.7614 97.2386 81 100 81H110ZM44 46.75C44 46.8336 44.0012 46.917 44.0035 47H44V90C44 94.9706 48.0294 99 53 99H68V104C68 106.761 65.7614 109 63 109H16C13.2386 109 11 106.761 11 104V16C11 13.2386 13.2386 11 16 11H23V16C23 17.6569 24.3431 19 26 19H52C53.6569 19 55 17.6569 55 16V11H63C65.7614 11 68 13.2386 68 16V23.5033C66.3455 23.4596 64.6606 23.8713 63.1395 24.7839L54.83 29.7696C51.7786 31.6005 50.197 34.961 50.4947 38.2934C46.7552 39.2881 44 42.6973 44 46.75ZM110 51.5V47.5C110 44.7386 107.761 42.5 105 42.5H104.64L99.6667 51.5H110ZM101.505 39.9031L95.0965 51.5H91.1036L97.3453 40.1181C98.3649 38.2587 97.7563 35.9267 95.958 34.8028L91.3059 31.8952C89.394 30.7003 86.8728 31.3207 85.7339 33.2665L75.0606 51.5H70.8436L84.0797 29.5559C85.5108 27.1833 88.5985 26.4269 90.9642 27.8694L99.7321 33.2157C102.019 34.6101 102.801 37.5589 101.505 39.9031ZM93.838 38.1948L86.5416 51.5H79.6955L89.1859 35.2872L93.838 38.1948ZM59.2604 39.7092L66.1067 51.5H61.6645L55.112 39.9551C53.7722 37.5945 54.5605 34.5961 56.888 33.1996L65.1975 28.2139C67.5172 26.8221 70.5231 27.5276 71.9814 29.8061L75.7272 35.659L73.7222 38.983L70.244 33.186C69.1074 31.2917 66.6503 30.6774 64.756 31.814L60.6616 34.2707C58.7864 35.3958 58.1623 37.8181 59.2604 39.7092ZM51.735 42.1087L57.0652 51.5H52.75C50.1266 51.5 48 49.3734 48 46.75C48 44.475 49.5993 42.5736 51.735 42.1087ZM71.3837 42.8601L66.814 35.244L62.7195 37.7007L68.4956 47.6483L71.3837 42.8601ZM27 11H51V15H27V11ZM26 102C24.8954 102 24 102.895 24 104C24 105.105 24.8954 106 26 106H52C53.1046 106 54 105.105 54 104C54 102.895 53.1046 102 52 102H26Z" fill="#1146A6"/>
</svg>
