<svg width="36" height="36" viewBox="0 0 36 36" fill="none" xmlns="http://www.w3.org/2000/svg">
<rect width="36" height="36" rx="18" fill="white"/>
<path d="M12.9375 16.875C11.85 16.875 10.9219 16.4906 10.1531 15.7219C9.38438 14.9531 9 14.025 9 12.9375C9 11.85 9.38438 10.9219 10.1531 10.1531C10.9219 9.38438 11.85 9 12.9375 9C14.025 9 14.9531 9.38438 15.7219 10.1531C16.4906 10.9219 16.875 11.85 16.875 12.9375C16.875 14.025 16.4906 14.9531 15.7219 15.7219C14.9531 16.4906 14.025 16.875 12.9375 16.875ZM12.9375 14.625C13.4062 14.625 13.8045 14.4608 14.1323 14.1323C14.4608 13.8045 14.625 13.4062 14.625 12.9375C14.625 12.4688 14.4608 12.0705 14.1323 11.7428C13.8045 11.4143 13.4062 11.25 12.9375 11.25C12.4688 11.25 12.0705 11.4143 11.7428 11.7428C11.4143 12.0705 11.25 12.4688 11.25 12.9375C11.25 13.4062 11.4143 13.8045 11.7428 14.1323C12.0705 14.4608 12.4688 14.625 12.9375 14.625ZM23.0625 27C21.975 27 21.0469 26.6156 20.2781 25.8469C19.5094 25.0781 19.125 24.15 19.125 23.0625C19.125 21.975 19.5094 21.0469 20.2781 20.2781C21.0469 19.5094 21.975 19.125 23.0625 19.125C24.15 19.125 25.0781 19.5094 25.8469 20.2781C26.6156 21.0469 27 21.975 27 23.0625C27 24.15 26.6156 25.0781 25.8469 25.8469C25.0781 26.6156 24.15 27 23.0625 27ZM23.0625 24.75C23.5312 24.75 23.9295 24.5857 24.2572 24.2572C24.5857 23.9295 24.75 23.5312 24.75 23.0625C24.75 22.5938 24.5857 22.1955 24.2572 21.8678C23.9295 21.5393 23.5312 21.375 23.0625 21.375C22.5938 21.375 22.1955 21.5393 21.8678 21.8678C21.5393 22.1955 21.375 22.5938 21.375 23.0625C21.375 23.5312 21.5393 23.9295 21.8678 24.2572C22.1955 24.5857 22.5938 24.75 23.0625 24.75ZM9.7875 26.2125C9.58125 26.0063 9.47813 25.7438 9.47813 25.425C9.47813 25.1063 9.58125 24.8438 9.7875 24.6375L24.6375 9.7875C24.8438 9.58125 25.1063 9.47813 25.425 9.47813C25.7438 9.47813 26.0063 9.58125 26.2125 9.7875C26.4187 9.99375 26.5219 10.2563 26.5219 10.575C26.5219 10.8938 26.4187 11.1562 26.2125 11.3625L11.3625 26.2125C11.1562 26.4187 10.8938 26.5219 10.575 26.5219C10.2563 26.5219 9.99375 26.4187 9.7875 26.2125Z" fill="#1146A6"/>
</svg>
