<svg width="120" height="120" viewBox="0 0 120 120" fill="none" xmlns="http://www.w3.org/2000/svg">
<path fill-rule="evenodd" clip-rule="evenodd" d="M66.3291 10.8505C66.966 9.96707 68.1927 9.75563 69.0887 10.3749L96.6271 29.4088C97.525 30.0294 97.7595 31.2553 97.154 32.1634L86.5963 48H78C78 44.8174 76.7357 41.7652 74.4853 39.5147C72.2348 37.2643 69.1826 36 66 36C62.8174 36 59.7652 37.2643 57.5147 39.5147C55.2643 41.7652 54 44.8174 54 48H39.5469L66.3291 10.8505ZM74.0049 48C74.0049 45.877 73.1615 43.8409 71.6603 42.3397C70.1591 40.8385 68.123 39.9951 66 39.9951C63.877 39.9951 61.8409 40.8385 60.3397 42.3397C58.8385 43.8409 57.9951 45.877 57.9951 48H74.0049ZM50.5264 25.9305L52.9109 22.623L32.2244 19.9901C31.1269 19.8505 30.1245 20.6283 29.9873 21.7261L26.7031 48H34.6158L47.8498 29.6432L33.7663 27.9863C32.6693 27.8572 31.8846 26.8633 32.0137 25.7663C32.1428 24.6693 33.1367 23.8846 34.2337 24.0137L50.5264 25.9305ZM32.7294 16.0222L55.5736 18.9296L63.0844 8.51131C64.9951 5.86098 68.6752 5.22664 71.363 7.08436L98.9014 26.1183C101.595 27.9801 102.299 31.6577 100.482 34.3822L91.4037 48H98.5C101.814 48 104.5 50.6863 104.5 54V67.5205C107.58 67.7746 110 70.3547 110 73.5V85C110 88.1453 107.58 90.7254 104.5 90.9795V104.5C104.5 107.814 101.814 110.5 98.5 110.5H17.5C14.1863 110.5 11.5 107.814 11.5 104.5V60V54C11.5 50.6863 14.1863 48 17.5 48H22.6719L26.0182 21.2299C26.4299 17.9366 29.437 15.6031 32.7294 16.0222ZM15.5 62V104.5C15.5 105.605 16.3954 106.5 17.5 106.5H98.5C99.6046 106.5 100.5 105.605 100.5 104.5V100L31 100C29.8954 100 29 99.1046 29 98C29 96.8954 29.8954 96 31 96L100.5 96V91H85C79.4771 91 75 86.5229 75 81V77.5C75 71.9772 79.4771 67.5 85 67.5H100.5V62H15.5ZM100.5 58H15.5V54C15.5 52.8954 16.3954 52 17.5 52H98.5C99.6046 52 100.5 52.8954 100.5 54V58ZM79 77.5C79 74.1863 81.6863 71.5 85 71.5H102.5H104C105.105 71.5 106 72.3954 106 73.5V85C106 86.1046 105.105 87 104 87H102.5H85C81.6863 87 79 84.3137 79 81V77.5ZM66.3419 17.8817C66.9595 16.9659 68.2025 16.7242 69.1183 17.3419L90.6183 31.8419C91.534 32.4595 91.7758 33.7025 91.1581 34.6183C90.5405 35.5341 89.2975 35.7758 88.3817 35.1581L66.8817 20.6581C65.966 20.0405 65.7242 18.7975 66.3419 17.8817Z" fill="#1146A6"/>
</svg>
